<svg width="86" height="52" viewBox="0 0 86 52" fill="none" xmlns="http://www.w3.org/2000/svg">
<path d="M13.5 25.968C13.428 25.86 13.356 25.788 13.248 25.788C12.6 25.788 11.88 27.012 10.044 27.012C7.272 27.012 6.336 25.176 6.336 21.216C6.336 17.076 7.416 15.204 9.864 15.204C11.736 15.204 12.924 16.644 13.284 16.644C13.392 16.644 13.464 16.536 13.536 16.464L14.868 14.124C14.904 14.016 14.976 13.908 14.976 13.8C14.976 12.684 11.808 11.604 9.864 11.604C4.536 11.604 1.476 15.384 1.476 21.468C1.476 27.552 4.464 30.612 9.468 30.612C11.628 30.612 14.544 29.568 14.544 28.704C14.544 28.596 14.472 28.452 14.436 28.344L13.5 25.968ZM23.5721 27.012C21.0521 27.012 20.6201 24.456 20.6201 21.108C20.6201 17.76 21.0881 15.204 23.5721 15.204C26.0561 15.204 26.5241 17.76 26.5241 21.108C26.5241 24.492 26.0921 27.012 23.5721 27.012ZM31.3841 21.108C31.3841 15.312 28.3961 11.604 23.5721 11.604C18.7121 11.604 15.7601 15.312 15.7601 21.108C15.7601 26.904 18.7121 30.612 23.5721 30.612C28.4321 30.612 31.3841 26.904 31.3841 21.108ZM48.6481 16.86C48.6481 12.504 45.9481 11.604 43.9681 11.604C41.1241 11.604 39.5041 13.152 38.4601 14.088C38.0641 12.396 37.7761 11.604 37.3081 11.604C37.1641 11.604 36.9841 11.64 36.7681 11.712L34.0321 12.612C33.7801 12.684 33.6361 12.828 33.6361 13.008C33.6361 13.836 34.3201 13.548 34.3201 18.624V29.496C34.3201 29.892 34.3921 30 34.8241 30H38.3881C38.8201 30 38.8921 29.892 38.8921 29.496V16.86C39.3601 16.428 40.5481 15.384 42.0601 15.384C43.8961 15.384 44.0761 17.04 44.0761 18.408V29.496C44.0761 29.892 44.1481 30 44.5801 30H48.1441C48.5761 30 48.6481 29.892 48.6481 29.496V16.86ZM66.004 17.652C66.004 14.808 67.012 13.512 67.012 13.044C67.012 12.9 66.832 12.792 66.688 12.72L63.88 11.676C63.772 11.64 63.628 11.604 63.52 11.604C63.016 11.604 62.368 12.972 62.26 13.296C61.576 12.72 60.532 11.604 57.976 11.604C53.692 11.604 51.172 15.204 51.172 21C51.172 26.4 53.296 29.784 57.328 29.784C59.776 29.784 61.144 28.776 61.684 28.416C61.684 28.668 61.792 29.532 61.792 30.792C61.792 32.808 61.36 33.852 58.84 33.852C55.636 33.852 53.44 32.448 53.008 32.448C52.828 32.448 52.684 32.556 52.612 32.808L51.928 35.004C51.82 35.328 51.784 35.472 51.784 35.724C51.784 36.48 56.428 37.632 59.236 37.632C64.24 37.632 66.184 35.04 66.184 31.116C66.184 29.1 66.004 25.392 66.004 23.016V17.652ZM61.684 24.96C61.324 25.284 60.46 26.184 58.624 26.184C56.464 26.184 55.744 24.132 55.744 20.856C55.744 17.4 56.68 15.384 58.84 15.384C60.46 15.384 61.216 16.104 61.684 16.464V24.96ZM76.336 27.012C73.816 27.012 73.384 24.456 73.384 21.108C73.384 17.76 73.852 15.204 76.336 15.204C78.82 15.204 79.288 17.76 79.288 21.108C79.288 24.492 78.856 27.012 76.336 27.012ZM84.148 21.108C84.148 15.312 81.16 11.604 76.336 11.604C71.476 11.604 68.524 15.312 68.524 21.108C68.524 26.904 71.476 30.612 76.336 30.612C81.196 30.612 84.148 26.904 84.148 21.108Z" fill="white"/>
<g clip-path="url(#clip0_102_192)">
<path fill-rule="evenodd" clip-rule="evenodd" d="M56.8542 44.3039C50.2947 47.8193 41.2454 49.0389 33.6838 48.1451C23.0813 46.8919 13.9754 42.0481 7.4847 35.0149C6.97479 34.4619 7.56141 33.8597 8.1975 34.3186C15.4827 39.5359 24.813 43.2594 34.7665 44.4359C41.4794 45.2293 49.0195 44.7863 56.1322 42.8582C57.2068 42.5666 57.9406 43.7173 56.8542 44.3039ZM59.9191 41.8569C59.2597 40.8265 54.8599 40.8089 52.8854 40.7983C52.2836 40.7971 52.251 40.2952 52.8275 40.005C56.5586 38.0997 62.1532 39.4383 62.7231 40.2921C63.2925 41.1502 61.8195 46.4596 58.2653 48.6567C57.7199 48.9942 57.2691 48.7268 57.5533 48.2274C58.4876 46.5813 60.5824 42.8922 59.9191 41.8569Z" fill="#FFB444"/>
</g>
<defs>
<clipPath id="clip0_102_192">
<rect width="56" height="12" fill="white" transform="translate(7.40863 33) rotate(6.7412)"/>
</clipPath>
</defs>
</svg>
